# xmcd
#
# Track frame offsets: 
#        150
#        18341
#        34889
#        52811
#        70459
#        87327
#        104028
#        121244
#        134634
#        149720
#        164889
#        179490
#        197257
#        211040
#
# Disc length: 3037 seconds
#
# Revision: 0
# Processed by: cddbd v1.5.1PL2 Copyright (c) Steve Scherf et al.
# Submitted via: ExactAudioCopy v0.95b4
#
DISCID=d50bdb0e
DTITLE=แมงปอ  ชลธิชา - รวมฮิต สุดฮ็อต สุดมัน
DYEAR=1900
DGENRE=Country
TTITLE0=หนูอยาก'นอุ้ม
TTITLE1=หนูกลัวตุ๊กแก
TTITLE2=นางสาวแนนซี่
TTITLE3=ตามหาสมชาย
TTITLE4=สมชายเปลี่ยนไป
TTITLE5=รักเก้อเพราะก้อนอิฐ
TTITLE6=สาวนครชัยศรี
TTITLE7=คอยรักหนุ่มตังเก
TTITLE8=คำเตือนของแม่
TTITLE9=อย่าหลอกกันนะ
TTITLE10=วิวาห์ฟ้าแลบ
TTITLE11=ขอบคุณความสบาย
TTITLE12=เอ็กซเรย์ใจ
TTITLE13=ปล่อยหนูไว้ดูเล่น
EXTD=
EXTT0=
EXTT1=
EXTT2=
EXTT3=
EXTT4=
EXTT5=
EXTT6=
EXTT7=
EXTT8=
EXTT9=
EXTT10=
EXTT11=
EXTT12=
EXTT13=
PLAYORDER=
